<svg width="1715" height="1833" viewBox="0 0 1715 1833" fill="none" xmlns="http://www.w3.org/2000/svg">
<path d="M94 803C94 578.979 94 466.969 137.597 381.404C175.947 306.139 237.139 244.947 312.404 206.597C397.969 163 509.979 163 734 163H990C1214.02 163 1326.03 163 1411.6 206.597C1486.86 244.947 1548.05 306.139 1586.4 381.404C1630 466.969 1630 578.979 1630 803V1059C1630 1283.02 1630 1395.03 1586.4 1480.6C1548.05 1555.86 1486.86 1617.05 1411.6 1655.4C1326.03 1699 1214.02 1699 990 1699H734C509.979 1699 397.969 1699 312.404 1655.4C237.139 1617.05 175.947 1555.86 137.597 1480.6C94 1395.03 94 1283.02 94 1059V803Z" fill="white"/>
<path d="M209 278H1515V1584H209V278Z" fill="white"/>
<path fill-rule="evenodd" clip-rule="evenodd" d="M1305.84 487.164H418.164V667.419H1123.88V1374.84H1305.84V487.164Z" fill="#93ABDA"/>
<path d="M418.164 813.664H974.234V1369.73H418.164V813.664Z" fill="#597EC6"/>
</svg>
